<?xml version="1.0" encoding="UTF-8"?>
<svg width="32px" height="32px" viewBox="0 0 32 32" version="1.1" xmlns="http://www.w3.org/2000/svg" xmlns:xlink="http://www.w3.org/1999/xlink">
    <!-- Generator: Sketch 59.1 (86144) - https://sketch.com -->
    <title>10</title>
    <desc>Created with Sketch.</desc>
    <g id="10" stroke="none" stroke-width="1" fill="none" fill-rule="evenodd">
        <g id="面性" transform="translate(4.000000, 4.000000)">
            <path d="M1.7412,0.213229268 C0.7794,0.213229268 0,0.986283856 0,1.94011429 L0,1.94011429 L0,21.9384418 C0,22.9779029 0.8574,23.6671108 1.752,23.6683001 L1.752,23.6683001 L1.7568,23.6683001 C2.184,23.6677055 2.619,23.5101213 2.973,23.1592734 L2.973,23.1592734 L23.1522,3.16035122 C24.249,2.07331754 23.4714,0.213229268 21.9204,0.213229268 L21.9204,0.213229268 L1.7412,0.213229268 Z" id="Clip-2" fill="#96BEFF"></path>
            <path d="M1.752,0.213229268 C0.8574,0.21501324 0,0.903626481 0,1.94308757 L0,1.94308757 L0,21.9426044 C0,22.8952455 0.7806,23.6683001 1.7412,23.6683001 L1.7412,23.6683001 L21.9204,23.6683001 C22.968,23.6683001 23.6628,22.8203187 23.6658,21.9342792 L23.6658,21.9342792 L23.6658,21.929522 C23.6658,21.5055312 23.5068,21.0732153 23.1522,20.7217728 L23.1522,20.7217728 L2.973,0.722255981 C2.619,0.37140813 2.184,0.214418583 1.7568,0.213229268 L1.7568,0.213229268 L1.752,0.213229268 Z" id="Clip-5" fill="#1759FF"></path>
            <path d="M9.4191,13.0408808 C10.6191,14.2301956 10.6191,16.1586695 9.4191,17.3479842 C8.2191,18.537299 6.2739,18.537299 5.0739,17.3479842 C3.8739,16.1586695 3.8739,14.2301956 5.0739,13.0408808 C6.2739,11.8515661 8.2191,11.8515661 9.4191,13.0408808" id="Fill-7" fill="#FFFFFF"></path>
        </g>
    </g>
</svg>